<svg xmlns="http://www.w3.org/2000/svg" version="1.1" xmlns:xlink="http://www.w3.org/1999/xlink" xmlns:svgjs="http://svgjs.dev/svgjs" width="1440" height="560" preserveAspectRatio="none" viewBox="0 0 1440 560"><g mask="url(&quot;#SvgjsMask1000&quot;)" fill="none"><rect width="1440" height="560" x="0" y="0" fill="#1e3266"></rect><path d="M1512 560L0 560 L0 333.83Q77.33 291.16, 120 368.5Q144.75 321.25, 192 345.99Q197 279, 264 284Q299.55 247.55, 336 283.1Q383.87 258.97, 408 306.84Q471.19 298.02, 480 361.21Q508.8 318, 552 346.8Q579.23 302.03, 624 329.27Q639.6 272.87, 696 288.46Q739.7 260.16, 768 303.87Q850.69 266.56, 888 349.25Q917.72 258.97, 1008 288.69Q1091.45 252.14, 1128 335.59Q1178.56 314.14, 1200 364.7Q1212.96 305.66, 1272 318.63Q1342.09 268.72, 1392 338.8Q1435.44 262.25, 1512 305.69z" fill="#182f5d"></path><path d="M1560 560L0 560 L0 437.69Q1.92 367.61, 72 369.52Q99.3 324.82, 144 352.12Q194.15 330.27, 216 380.43Q271.83 364.26, 288 420.1Q334.2 346.31, 408 392.51Q437.55 350.06, 480 379.61Q561.75 341.36, 600 423.1Q623.32 374.43, 672 397.75Q708.88 314.63, 792 351.5Q859.4 298.9, 912 366.3Q969.31 351.61, 984 408.91Q1053.04 357.95, 1104 426.98Q1124.5 375.48, 1176 395.97Q1202.98 350.95, 1248 377.93Q1272.22 330.15, 1320 354.38Q1406.18 320.56, 1440 406.74Q1513.37 360.11, 1560 433.48z" fill="#25467d"></path><path d="M1512 560L0 560 L0 452.07Q52.09 384.16, 120 436.26Q170.1 414.36, 192 464.45Q264.19 416.64, 312 488.84Q342.9 399.74, 432 430.63Q474.35 400.98, 504 443.32Q592.39 411.72, 624 500.11Q644.25 448.36, 696 468.6Q710.82 411.42, 768 426.23Q839.44 377.68, 888 449.12Q970.68 411.81, 1008 494.49Q1050.54 465.03, 1080 507.57Q1088.62 444.19, 1152 452.8Q1197.57 378.37, 1272 423.93Q1338.09 370.01, 1392 436.1Q1463.81 387.91, 1512 459.72z" fill="#356cb1"></path><path d="M1512 560L0 560 L0 585Q20.08 485.08, 120 505.16Q173.9 439.06, 240 492.96Q299.84 480.8, 312 540.65Q383 491.65, 432 562.66Q441.84 500.5, 504 510.33Q530.46 464.78, 576 491.24Q628.72 471.96, 648 524.68Q727.38 484.06, 768 563.44Q809.12 532.56, 840 573.68Q885.34 499.02, 960 544.36Q1007.9 472.26, 1080 520.17Q1136.37 504.54, 1152 560.91Q1199.84 488.75, 1272 536.58Q1323.45 468.04, 1392 519.49Q1467.68 475.17, 1512 550.86z" fill="white"></path></g><defs><mask id="SvgjsMask1000"><rect width="1440" height="560" fill="#ffffff"></rect></mask></defs></svg>